<svg xmlns="http://www.w3.org/2000/svg" xmlns:xlink="http://www.w3.org/1999/xlink" viewBox="0 0 126.44 126.44"><defs><style>.cls-1{fill:url(#linear-gradient);}.cls-2{fill:url(#linear-gradient-2);}.cls-3{fill:url(#linear-gradient-3);}.cls-4{fill:url(#linear-gradient-4);}.cls-5{fill:url(#linear-gradient-5);}.cls-6{fill:url(#linear-gradient-6);}.cls-7{fill:url(#linear-gradient-7);}.cls-8{fill:url(#linear-gradient-8);}.cls-9{fill:none;stroke:#9d55a1;stroke-miterlimit:10;stroke-width:0.25px;}</style><linearGradient id="linear-gradient" x1="-89.19" y1="256.06" x2="-89.19" y2="248.14" gradientTransform="matrix(2, 0, 0, -2, 241.78, 588.67)" gradientUnits="userSpaceOnUse"><stop offset="0" stop-color="#6dc7ff"/><stop offset="1" stop-color="#e6abff"/></linearGradient><linearGradient id="linear-gradient-2" x1="-100.07" y1="254.4" x2="-100.07" y2="246.44" xlink:href="#linear-gradient"/><linearGradient id="linear-gradient-3" x1="-95.74" y1="266.32" x2="-95.74" y2="258.75" xlink:href="#linear-gradient"/><linearGradient id="linear-gradient-4" x1="-89.22" y1="272.21" x2="-89.22" y2="269.67" xlink:href="#linear-gradient"/><linearGradient id="linear-gradient-5" x1="-78.75" y1="254.4" x2="-78.75" y2="246.44" xlink:href="#linear-gradient"/><linearGradient id="linear-gradient-6" x1="-82.84" y1="266.32" x2="-82.84" y2="258.75" xlink:href="#linear-gradient"/><linearGradient id="linear-gradient-7" x1="-89.28" y1="242.83" x2="-89.28" y2="241.52" xlink:href="#linear-gradient"/><linearGradient id="linear-gradient-8" x1="-89.28" y1="289.25" x2="-89.28" y2="234.28" gradientTransform="matrix(2, 0, 0, -2, 241.78, 588.67)" gradientUnits="userSpaceOnUse"><stop offset="0" stop-color="#1a6dff"/><stop offset="1" stop-color="#c822ff"/></linearGradient></defs><g id="Layer_2" data-name="Layer 2"><g id="Layer_1-2" data-name="Layer 1"><path class="cls-1" d="M63.4,92.15c4.08,0,7.4-3,7.4-6.6,0-3.49-3.34-6.44-7.46-6.6-4.05,0-7.34,3-7.34,6.6C56,89.34,59.25,92.15,63.4,92.15Z"/><path class="cls-2" d="M45.52,95.9a3.74,3.74,0,0,0,.52,0,11.12,11.12,0,0,0-2.5-6.94c-2.47-2.86-4.92-4.21-6.19-4.26a10.75,10.75,0,0,0,1.46,7C41.6,95.59,44.64,95.9,45.52,95.9Z"/><path class="cls-3" d="M55.53,69.05a8.83,8.83,0,0,0,1.52-6.63,5,5,0,0,0-2.17-3.28,5.24,5.24,0,0,0-3-.92,8.33,8.33,0,0,0-6.72,4.09,9,9,0,0,0-1.62,6.78,5,5,0,0,0,2.17,3.27,4.87,4.87,0,0,0,2.74.79A9.19,9.19,0,0,0,55.53,69.05Z"/><path class="cls-4" d="M69.43,47.84a9.44,9.44,0,0,0-6.23-2.69,9.87,9.87,0,0,0-6,2.38,9.83,9.83,0,0,0,6,1.62C66.89,49.15,68.78,48.3,69.43,47.84Z"/><path class="cls-5" d="M80.43,96.11c.93,0,4.17-.32,7.1-4.46,1.91-2.58,1.55-6.73.93-8.48-.84.25-2.8,1.34-5.64,4.61-2.32,2.57-3.4,6.62-3.2,8.26A4.35,4.35,0,0,0,80.43,96.11Z"/><path class="cls-6" d="M80.52,71.87c2.81-1.84,3.09-6.46.72-10.16a8.55,8.55,0,0,0-6.85-4,5.27,5.27,0,0,0-2.87.79c-2.65,1.72-2.93,6.34-.55,10a8.74,8.74,0,0,0,6.85,4.09A4.63,4.63,0,0,0,80.52,71.87Z"/><path class="cls-7" d="M63.35,106a9.44,9.44,0,0,0,5.39-2,18.21,18.21,0,0,0-4.54-.59l-.8,0-.65,0a18,18,0,0,0-5.07.79A9.83,9.83,0,0,0,62.86,106Z"/><path class="cls-8" d="M95.6,58.55l-.8-1.2c0-9-4.2-12.8-9-15.6,1.4-.4,3-.8,3.4-2.6,2.6-.6,3-1.8,3.2-3,.6-.4,2.8-1.6,2.6-3.8a3.23,3.23,0,0,0,1.6-3.6c1.4-1.4,1.6-2.6,1.2-3.8,1.6-2,.8-3,.2-4,1.2-2.2.2-4.6-3.2-4.2-1.4-2-4.2-1.6-4.6-1.6-.4-.6-1-1.2-3-1a3.64,3.64,0,0,0-4.2-.4c-1.8-1.4-3-.2-4.4.2-2.2-.8-2.6.2-3.8.6-2.4-.6-3,.6-4.2,1.8H69.2c-3.6,2.2-5.4,6.4-6,8.6-.6-2.2-2.4-6.6-6-8.6H55.8c-1.2-1.2-1.8-2.2-4.2-1.8-1-.4-1.6-1.4-3.8-.6a9.9,9.9,0,0,0-2.6-.8h0a2.66,2.66,0,0,0-1.6.6c-1.6-.4-3-.6-4.4.4-2-.2-2.6.2-3.2,1-.4,0-3.4-.4-4.6,1.6-3.4-.4-4.4,2-3.2,4.2-.6,1-1.4,2,.2,4-.4,1-.2,2.2,1.2,3.8-.4,1.6.4,2.6,1.6,3.4-.2,2.2,2,3.4,2.6,3.8.2,1.2.8,2.4,3.2,3,.4,1.8,2,2.2,3.4,2.6-4.8,2.8-9,6.6-9,15.6l-.8,1.2C25.2,62,20.2,72.75,28,81.55a48.35,48.35,0,0,0,2.2,7c1.2,8.8,8.6,13,10.6,13.4a39.86,39.86,0,0,0,10,5.8,16.84,16.84,0,0,0,12.4,5.6h.2c4.2,0,8.4-1.6,12.4-5.6a32.12,32.12,0,0,0,10-5.8c2-.4,9.4-4.6,10.6-13.4a48.35,48.35,0,0,0,2.2-7C106.2,72.75,101.2,62,95.6,58.55Zm-5-1.6c-.2,3.6-19-12.8-15.8-13.2C83.6,42.35,90.8,47.55,90.6,57ZM70,19c.2.8.4,1.4.6,1.4A25,25,0,0,1,73.8,17c0,.6-.4,1.4.4,1.8a9.72,9.72,0,0,1,3-2.6c-.6,1-.2,1.4.2,1.8a11.3,11.3,0,0,1,3.8-2.4c-.4.6-1.2,1.2-.4,2a13.73,13.73,0,0,1,4.4-1.8c-.6.6-1.6,1.2-1,1.8a21.61,21.61,0,0,1,4.2-1c-.8.6-1.4,1.2-.8,1.8a10.18,10.18,0,0,1,5-.6L91.4,19a27.15,27.15,0,0,0,4.8.2,12.08,12.08,0,0,0-1.8,3.6c.2.2,1.2,0,2,0-.8,2-2.4,2.4-2.8,3.2a2.16,2.16,0,0,0,2.2,0c-.6,1.4-2,2.2-3,3.4a2.14,2.14,0,0,0,1.8.2,28.56,28.56,0,0,1-3.6,3,11.26,11.26,0,0,0,2,.4,20.46,20.46,0,0,1-4.4,2.8,2.6,2.6,0,0,0,2,.4c-1,1-3,1.4-4.6,2,.4.6.6.6,1.4.8-1.8,1-4.4.6-5.2,1,.2.6.6.8,1.2,1.2-3,.2-11-.2-12.6-6.4,3-3.4,8.6-7.4,18-12.2-7.4,2.6-14,5.8-19.6,10.4C62.4,29.75,66.8,22,70,19Zm-6.8,22.2c4.6,0,10.4,3.4,10.4,6.8,0,3-4,5.2-10.4,5.2-6.2,0-10.4-3-10.4-5.8,0-2.2,5.2-6.2,10.4-6.2Zm-23.6-2.4c.8-.2,1-.2,1.4-.8-1.8-.6-3.6-1-4.6-2a2.6,2.6,0,0,0,2-.4c-1.6-.8-3.2-1.4-4.4-2.8a3,3,0,0,0,2-.4,13.1,13.1,0,0,1-3.6-3c1.2.2,1.6,0,1.8-.2-1-1-2.4-2-3-3.4a2.79,2.79,0,0,0,2.2,0c-.8-.6-2.4-1-3.2-3,.8,0,1.8.2,2,0a12.08,12.08,0,0,0-1.8-3.6c1.8,0,4.8,0,4.6-.2l-1.2-1.2a8.1,8.1,0,0,1,5,.6c.6-.4,0-1-.8-1.8a21.61,21.61,0,0,1,4.2,1c.6-.6-.4-1.2-1-1.8a8.27,8.27,0,0,1,4.4,1.8c.8-.8,0-1.4-.4-2a10.64,10.64,0,0,1,4,2.6c.4-.4.8-.8.2-1.8a12.78,12.78,0,0,1,3,2.6c.8-.6.4-1.2.4-1.8a17,17,0,0,1,3.2,3.4,3.08,3.08,0,0,0,.6-1.4c3.2,3.2,7.8,11,1.2,14a59.38,59.38,0,0,0-19.6-10.4c9.4,4.8,15,8.8,18,12.2-1.6,6.2-9.6,6.4-12.6,6.4.6-.2,1.2-.6,1.2-1.2C44.2,39.35,41.4,39.75,39.6,38.75Zm11,4.8c3.2.6-15.6,17-15.8,13.2C34.4,47.15,41.8,42,50.6,43.55ZM30.8,80c-4.6-3.6-6-14.4,2.4-19.2C38.4,59.35,35,81.75,30.8,80Zm17.8,19.2c-2.6,1.6-8.8,1-13.2-5.4-3-5.4-2.6-10.8-.6-12.4,3.2-2,8,.6,11.8,5C49.8,90.15,51.4,97.15,48.6,99.15Zm-5-23.4c-4.8-3-5.6-10-1.8-15.6,3.6-5.6,10.4-7.6,15.2-4.4,4.8,3,5.6,10,1.8,15.6C55,76.75,48.2,78.75,43.6,75.75ZM63.2,110c-5.6.2-11.2-4.6-11.2-6.4,0-2.4,6.8-4.4,11.4-4.2,4.6-.2,10.6,1.4,10.8,3.6C74.2,105.35,68.6,110.15,63.2,110Zm11.6-24.4c0,5.8-5,10.6-11.4,10.6S52,91.55,52,85.75v-.2C52,79.75,57,75,63.4,75c6.2.2,11.4,4.8,11.4,10.6Zm-7.2-14.8c-3.6-5.6-2.8-12.6,1.8-15.6,4.8-3,11.6-1,15.2,4.4,3.6,5.6,2.8,12.6-1.8,15.6C78.2,78.35,71.4,76.35,67.6,70.75ZM90.8,94c-4.8,6.8-11.4,7-14,5.2-2.6-2.4-.6-10,3-14h0c4-4.6,8.4-7.6,11.4-5.2C93,82,94.2,89.35,90.8,94Zm3.8-14.4c-4.2,1.8-7.6-20.6-2.4-19.2C100.6,65.35,99,76,94.6,79.55Z"/><circle class="cls-9" cx="63.22" cy="63.22" r="63.1"/></g></g></svg>